<?xml version="1.0" encoding="utf-8" standalone="no"?>
<!DOCTYPE svg PUBLIC "-//W3C//DTD SVG 1.1//EN"
  "http://www.w3.org/Graphics/SVG/1.1/DTD/svg11.dtd">
<!-- Created with matplotlib (https://matplotlib.org/) -->
<svg height="534.24pt" version="1.1" viewBox="0 0 748.08 534.24" width="748.08pt" xmlns="http://www.w3.org/2000/svg" xmlns:xlink="http://www.w3.org/1999/xlink">
 <defs>
  <style type="text/css">
*{stroke-linecap:butt;stroke-linejoin:round;}
  </style>
 </defs>
 <g id="figure_1">
  <g id="patch_1">
   <path d="M 0 534.24 
L 748.08 534.24 
L 748.08 0 
L 0 0 
z
" style="fill:#ffffff;"/>
  </g>
  <g id="axes_1">
   <g id="patch_2">
    <path d="M 93.51 475.4736 
L 673.272 475.4736 
L 673.272 64.1088 
L 93.51 64.1088 
z
" style="fill:#eaeaf2;"/>
   </g>
   <g id="matplotlib.axis_1">
    <g id="xtick_1">
     <g id="line2d_1">
      <path clip-path="url(#p4d61127246)" d="M 112.815627 475.4736 
L 112.815627 64.1088 
" style="fill:none;stroke:#ffffff;stroke-linecap:round;"/>
     </g>
     <g id="text_1">
      <!-- 0 -->
      <defs>
       <path d="M 4.15625 35.296875 
Q 4.15625 48 6.765625 55.734375 
Q 9.375 63.484375 14.515625 67.671875 
Q 19.671875 71.875 27.484375 71.875 
Q 33.25 71.875 37.59375 69.546875 
Q 41.9375 67.234375 44.765625 62.859375 
Q 47.609375 58.5 49.21875 52.21875 
Q 50.828125 45.953125 50.828125 35.296875 
Q 50.828125 22.703125 48.234375 14.96875 
Q 45.65625 7.234375 40.5 3 
Q 35.359375 -1.21875 27.484375 -1.21875 
Q 17.140625 -1.21875 11.234375 6.203125 
Q 4.15625 15.140625 4.15625 35.296875 
z
M 13.1875 35.296875 
Q 13.1875 17.671875 17.3125 11.828125 
Q 21.4375 6 27.484375 6 
Q 33.546875 6 37.671875 11.859375 
Q 41.796875 17.71875 41.796875 35.296875 
Q 41.796875 52.984375 37.671875 58.78125 
Q 33.546875 64.59375 27.390625 64.59375 
Q 21.34375 64.59375 17.71875 59.46875 
Q 13.1875 52.9375 13.1875 35.296875 
z
" id="ArialMT-48"/>
      </defs>
      <g style="fill:#262626;" transform="translate(109.757111 492.847194)scale(0.11 -0.11)">
       <use xlink:href="#ArialMT-48"/>
      </g>
     </g>
    </g>
    <g id="xtick_2">
     <g id="line2d_2">
      <path clip-path="url(#p4d61127246)" d="M 196.43386 475.4736 
L 196.43386 64.1088 
" style="fill:none;stroke:#ffffff;stroke-linecap:round;"/>
     </g>
     <g id="text_2">
      <!-- 5 -->
      <defs>
       <path d="M 4.15625 18.75 
L 13.375 19.53125 
Q 14.40625 12.796875 18.140625 9.390625 
Q 21.875 6 27.15625 6 
Q 33.5 6 37.890625 10.78125 
Q 42.28125 15.578125 42.28125 23.484375 
Q 42.28125 31 38.0625 35.34375 
Q 33.84375 39.703125 27 39.703125 
Q 22.75 39.703125 19.328125 37.765625 
Q 15.921875 35.84375 13.96875 32.765625 
L 5.71875 33.84375 
L 12.640625 70.609375 
L 48.25 70.609375 
L 48.25 62.203125 
L 19.671875 62.203125 
L 15.828125 42.96875 
Q 22.265625 47.46875 29.34375 47.46875 
Q 38.71875 47.46875 45.15625 40.96875 
Q 51.609375 34.46875 51.609375 24.265625 
Q 51.609375 14.546875 45.953125 7.46875 
Q 39.0625 -1.21875 27.15625 -1.21875 
Q 17.390625 -1.21875 11.203125 4.25 
Q 5.03125 9.71875 4.15625 18.75 
z
" id="ArialMT-53"/>
      </defs>
      <g style="fill:#262626;" transform="translate(193.375344 492.847194)scale(0.11 -0.11)">
       <use xlink:href="#ArialMT-53"/>
      </g>
     </g>
    </g>
    <g id="xtick_3">
     <g id="line2d_3">
      <path clip-path="url(#p4d61127246)" d="M 280.052093 475.4736 
L 280.052093 64.1088 
" style="fill:none;stroke:#ffffff;stroke-linecap:round;"/>
     </g>
     <g id="text_3">
      <!-- 10 -->
      <defs>
       <path d="M 37.25 0 
L 28.46875 0 
L 28.46875 56 
Q 25.296875 52.984375 20.140625 49.953125 
Q 14.984375 46.921875 10.890625 45.40625 
L 10.890625 53.90625 
Q 18.265625 57.375 23.78125 62.296875 
Q 29.296875 67.234375 31.59375 71.875 
L 37.25 71.875 
z
" id="ArialMT-49"/>
      </defs>
      <g style="fill:#262626;" transform="translate(273.935061 492.847194)scale(0.11 -0.11)">
       <use xlink:href="#ArialMT-49"/>
       <use x="55.615234" xlink:href="#ArialMT-48"/>
      </g>
     </g>
    </g>
    <g id="xtick_4">
     <g id="line2d_4">
      <path clip-path="url(#p4d61127246)" d="M 363.670325 475.4736 
L 363.670325 64.1088 
" style="fill:none;stroke:#ffffff;stroke-linecap:round;"/>
     </g>
     <g id="text_4">
      <!-- 15 -->
      <g style="fill:#262626;" transform="translate(357.553294 492.847194)scale(0.11 -0.11)">
       <use xlink:href="#ArialMT-49"/>
       <use x="55.615234" xlink:href="#ArialMT-53"/>
      </g>
     </g>
    </g>
    <g id="xtick_5">
     <g id="line2d_5">
      <path clip-path="url(#p4d61127246)" d="M 447.288558 475.4736 
L 447.288558 64.1088 
" style="fill:none;stroke:#ffffff;stroke-linecap:round;"/>
     </g>
     <g id="text_5">
      <!-- 20 -->
      <defs>
       <path d="M 50.34375 8.453125 
L 50.34375 0 
L 3.03125 0 
Q 2.9375 3.171875 4.046875 6.109375 
Q 5.859375 10.9375 9.828125 15.625 
Q 13.8125 20.3125 21.34375 26.46875 
Q 33.015625 36.03125 37.109375 41.625 
Q 41.21875 47.21875 41.21875 52.203125 
Q 41.21875 57.421875 37.46875 61 
Q 33.734375 64.59375 27.734375 64.59375 
Q 21.390625 64.59375 17.578125 60.78125 
Q 13.765625 56.984375 13.71875 50.25 
L 4.6875 51.171875 
Q 5.609375 61.28125 11.65625 66.578125 
Q 17.71875 71.875 27.9375 71.875 
Q 38.234375 71.875 44.234375 66.15625 
Q 50.25 60.453125 50.25 52 
Q 50.25 47.703125 48.484375 43.546875 
Q 46.734375 39.40625 42.65625 34.8125 
Q 38.578125 30.21875 29.109375 22.21875 
Q 21.1875 15.578125 18.9375 13.203125 
Q 16.703125 10.84375 15.234375 8.453125 
z
" id="ArialMT-50"/>
      </defs>
      <g style="fill:#262626;" transform="translate(441.171527 492.847194)scale(0.11 -0.11)">
       <use xlink:href="#ArialMT-50"/>
       <use x="55.615234" xlink:href="#ArialMT-48"/>
      </g>
     </g>
    </g>
    <g id="xtick_6">
     <g id="line2d_6">
      <path clip-path="url(#p4d61127246)" d="M 530.906791 475.4736 
L 530.906791 64.1088 
" style="fill:none;stroke:#ffffff;stroke-linecap:round;"/>
     </g>
     <g id="text_6">
      <!-- 25 -->
      <g style="fill:#262626;" transform="translate(524.78976 492.847194)scale(0.11 -0.11)">
       <use xlink:href="#ArialMT-50"/>
       <use x="55.615234" xlink:href="#ArialMT-53"/>
      </g>
     </g>
    </g>
    <g id="xtick_7">
     <g id="line2d_7">
      <path clip-path="url(#p4d61127246)" d="M 614.525024 475.4736 
L 614.525024 64.1088 
" style="fill:none;stroke:#ffffff;stroke-linecap:round;"/>
     </g>
     <g id="text_7">
      <!-- 30 -->
      <defs>
       <path d="M 4.203125 18.890625 
L 12.984375 20.0625 
Q 14.5 12.59375 18.140625 9.296875 
Q 21.78125 6 27 6 
Q 33.203125 6 37.46875 10.296875 
Q 41.75 14.59375 41.75 20.953125 
Q 41.75 27 37.796875 30.921875 
Q 33.84375 34.859375 27.734375 34.859375 
Q 25.25 34.859375 21.53125 33.890625 
L 22.515625 41.609375 
Q 23.390625 41.5 23.921875 41.5 
Q 29.546875 41.5 34.03125 44.421875 
Q 38.53125 47.359375 38.53125 53.46875 
Q 38.53125 58.296875 35.25 61.46875 
Q 31.984375 64.65625 26.8125 64.65625 
Q 21.6875 64.65625 18.265625 61.421875 
Q 14.84375 58.203125 13.875 51.765625 
L 5.078125 53.328125 
Q 6.6875 62.15625 12.390625 67.015625 
Q 18.109375 71.875 26.609375 71.875 
Q 32.46875 71.875 37.390625 69.359375 
Q 42.328125 66.84375 44.9375 62.5 
Q 47.5625 58.15625 47.5625 53.265625 
Q 47.5625 48.640625 45.0625 44.828125 
Q 42.578125 41.015625 37.703125 38.765625 
Q 44.046875 37.3125 47.5625 32.6875 
Q 51.078125 28.078125 51.078125 21.140625 
Q 51.078125 11.765625 44.234375 5.25 
Q 37.40625 -1.265625 26.953125 -1.265625 
Q 17.53125 -1.265625 11.296875 4.34375 
Q 5.078125 9.96875 4.203125 18.890625 
z
" id="ArialMT-51"/>
      </defs>
      <g style="fill:#262626;" transform="translate(608.407993 492.847194)scale(0.11 -0.11)">
       <use xlink:href="#ArialMT-51"/>
       <use x="55.615234" xlink:href="#ArialMT-48"/>
      </g>
     </g>
    </g>
    <g id="text_8">
     <!-- x -->
     <defs>
      <path d="M 0.734375 0 
L 19.671875 26.953125 
L 2.15625 51.859375 
L 13.140625 51.859375 
L 21.09375 39.703125 
Q 23.34375 36.234375 24.703125 33.890625 
Q 26.859375 37.109375 28.65625 39.59375 
L 37.40625 51.859375 
L 47.90625 51.859375 
L 29.984375 27.4375 
L 49.265625 0 
L 38.484375 0 
L 27.828125 16.109375 
L 25 20.453125 
L 11.375 0 
z
" id="ArialMT-120"/>
     </defs>
     <g style="fill:#262626;" transform="translate(380.391 507.622819)scale(0.12 -0.12)">
      <use xlink:href="#ArialMT-120"/>
     </g>
    </g>
   </g>
   <g id="matplotlib.axis_2">
    <g id="ytick_1">
     <g id="line2d_8">
      <path clip-path="url(#p4d61127246)" d="M 93.51 432.417036 
L 673.272 432.417036 
" style="fill:none;stroke:#ffffff;stroke-linecap:round;"/>
     </g>
     <g id="text_9">
      <!-- −0.4 -->
      <defs>
       <path d="M 52.828125 31.203125 
L 5.5625 31.203125 
L 5.5625 39.40625 
L 52.828125 39.40625 
z
" id="ArialMT-8722"/>
       <path d="M 9.078125 0 
L 9.078125 10.015625 
L 19.09375 10.015625 
L 19.09375 0 
z
" id="ArialMT-46"/>
       <path d="M 32.328125 0 
L 32.328125 17.140625 
L 1.265625 17.140625 
L 1.265625 25.203125 
L 33.9375 71.578125 
L 41.109375 71.578125 
L 41.109375 25.203125 
L 50.78125 25.203125 
L 50.78125 17.140625 
L 41.109375 17.140625 
L 41.109375 0 
z
M 32.328125 25.203125 
L 32.328125 57.46875 
L 9.90625 25.203125 
z
" id="ArialMT-52"/>
      </defs>
      <g style="fill:#262626;" transform="translate(62.295313 436.353832)scale(0.11 -0.11)">
       <use xlink:href="#ArialMT-8722"/>
       <use x="58.398438" xlink:href="#ArialMT-48"/>
       <use x="114.013672" xlink:href="#ArialMT-46"/>
       <use x="141.796875" xlink:href="#ArialMT-52"/>
      </g>
     </g>
    </g>
    <g id="ytick_2">
     <g id="line2d_9">
      <path clip-path="url(#p4d61127246)" d="M 93.51 371.444085 
L 673.272 371.444085 
" style="fill:none;stroke:#ffffff;stroke-linecap:round;"/>
     </g>
     <g id="text_10">
      <!-- −0.3 -->
      <g style="fill:#262626;" transform="translate(62.295313 375.380881)scale(0.11 -0.11)">
       <use xlink:href="#ArialMT-8722"/>
       <use x="58.398438" xlink:href="#ArialMT-48"/>
       <use x="114.013672" xlink:href="#ArialMT-46"/>
       <use x="141.796875" xlink:href="#ArialMT-51"/>
      </g>
     </g>
    </g>
    <g id="ytick_3">
     <g id="line2d_10">
      <path clip-path="url(#p4d61127246)" d="M 93.51 310.471133 
L 673.272 310.471133 
" style="fill:none;stroke:#ffffff;stroke-linecap:round;"/>
     </g>
     <g id="text_11">
      <!-- −0.2 -->
      <g style="fill:#262626;" transform="translate(62.295313 314.40793)scale(0.11 -0.11)">
       <use xlink:href="#ArialMT-8722"/>
       <use x="58.398438" xlink:href="#ArialMT-48"/>
       <use x="114.013672" xlink:href="#ArialMT-46"/>
       <use x="141.796875" xlink:href="#ArialMT-50"/>
      </g>
     </g>
    </g>
    <g id="ytick_4">
     <g id="line2d_11">
      <path clip-path="url(#p4d61127246)" d="M 93.51 249.498182 
L 673.272 249.498182 
" style="fill:none;stroke:#ffffff;stroke-linecap:round;"/>
     </g>
     <g id="text_12">
      <!-- −0.1 -->
      <g style="fill:#262626;" transform="translate(62.295313 253.434979)scale(0.11 -0.11)">
       <use xlink:href="#ArialMT-8722"/>
       <use x="58.398438" xlink:href="#ArialMT-48"/>
       <use x="114.013672" xlink:href="#ArialMT-46"/>
       <use x="141.796875" xlink:href="#ArialMT-49"/>
      </g>
     </g>
    </g>
    <g id="ytick_5">
     <g id="line2d_12">
      <path clip-path="url(#p4d61127246)" d="M 93.51 188.525231 
L 673.272 188.525231 
" style="fill:none;stroke:#ffffff;stroke-linecap:round;"/>
     </g>
     <g id="text_13">
      <!-- 0.0 -->
      <g style="fill:#262626;" transform="translate(68.72 192.462028)scale(0.11 -0.11)">
       <use xlink:href="#ArialMT-48"/>
       <use x="55.615234" xlink:href="#ArialMT-46"/>
       <use x="83.398438" xlink:href="#ArialMT-48"/>
      </g>
     </g>
    </g>
    <g id="ytick_6">
     <g id="line2d_13">
      <path clip-path="url(#p4d61127246)" d="M 93.51 127.55228 
L 673.272 127.55228 
" style="fill:none;stroke:#ffffff;stroke-linecap:round;"/>
     </g>
     <g id="text_14">
      <!-- 0.1 -->
      <g style="fill:#262626;" transform="translate(68.72 131.489077)scale(0.11 -0.11)">
       <use xlink:href="#ArialMT-48"/>
       <use x="55.615234" xlink:href="#ArialMT-46"/>
       <use x="83.398438" xlink:href="#ArialMT-49"/>
      </g>
     </g>
    </g>
    <g id="ytick_7">
     <g id="line2d_14">
      <path clip-path="url(#p4d61127246)" d="M 93.51 66.579329 
L 673.272 66.579329 
" style="fill:none;stroke:#ffffff;stroke-linecap:round;"/>
     </g>
     <g id="text_15">
      <!-- 0.2 -->
      <g style="fill:#262626;" transform="translate(68.72 70.516126)scale(0.11 -0.11)">
       <use xlink:href="#ArialMT-48"/>
       <use x="55.615234" xlink:href="#ArialMT-46"/>
       <use x="83.398438" xlink:href="#ArialMT-50"/>
      </g>
     </g>
    </g>
    <g id="text_16">
     <!-- y -->
     <defs>
      <path d="M 6.203125 -19.96875 
L 5.21875 -11.71875 
Q 8.109375 -12.5 10.25 -12.5 
Q 13.1875 -12.5 14.9375 -11.515625 
Q 16.703125 -10.546875 17.828125 -8.796875 
Q 18.65625 -7.46875 20.515625 -2.25 
Q 20.75 -1.515625 21.296875 -0.09375 
L 1.609375 51.859375 
L 11.078125 51.859375 
L 21.875 21.828125 
Q 23.96875 16.109375 25.640625 9.8125 
Q 27.15625 15.875 29.25 21.625 
L 40.328125 51.859375 
L 49.125 51.859375 
L 29.390625 -0.875 
Q 26.21875 -9.421875 24.46875 -12.640625 
Q 22.125 -17 19.09375 -19.015625 
Q 16.0625 -21.046875 11.859375 -21.046875 
Q 9.328125 -21.046875 6.203125 -19.96875 
z
" id="ArialMT-121"/>
     </defs>
     <g style="fill:#262626;" transform="translate(55.769688 272.7912)rotate(-90)scale(0.12 -0.12)">
      <use xlink:href="#ArialMT-121"/>
     </g>
    </g>
   </g>
   <g id="PathCollection_1">
    <defs>
     <path d="M 0 3 
C 0.795609 3 1.55874 2.683901 2.12132 2.12132 
C 2.683901 1.55874 3 0.795609 3 0 
C 3 -0.795609 2.683901 -1.55874 2.12132 -2.12132 
C 1.55874 -2.683901 0.795609 -3 0 -3 
C -0.795609 -3 -1.55874 -2.683901 -2.12132 -2.12132 
C -2.683901 -1.55874 -3 -0.795609 -3 0 
C -3 0.795609 -2.683901 1.55874 -2.12132 2.12132 
C -1.55874 2.683901 -0.795609 3 0 3 
z
" id="m19967258fe" style="stroke:#4c72b0;"/>
    </defs>
    <g clip-path="url(#p4d61127246)">
     <use style="fill:#4c72b0;stroke:#4c72b0;" x="123.323395" xlink:href="#m19967258fe" y="311.256465"/>
     <use style="fill:#4c72b0;stroke:#4c72b0;" x="128.577279" xlink:href="#m19967258fe" y="363.594427"/>
     <use style="fill:#4c72b0;stroke:#4c72b0;" x="133.83123" xlink:href="#m19967258fe" y="405.806001"/>
     <use style="fill:#4c72b0;stroke:#4c72b0;" x="139.085131" xlink:href="#m19967258fe" y="435.639456"/>
     <use style="fill:#4c72b0;stroke:#4c72b0;" x="144.338865" xlink:href="#m19967258fe" y="451.691195"/>
     <use style="fill:#4c72b0;stroke:#4c72b0;" x="149.592765" xlink:href="#m19967258fe" y="453.494775"/>
     <use style="fill:#4c72b0;stroke:#4c72b0;" x="154.846666" xlink:href="#m19967258fe" y="441.533711"/>
     <use style="fill:#4c72b0;stroke:#4c72b0;" x="160.100567" xlink:href="#m19967258fe" y="417.186602"/>
     <use style="fill:#4c72b0;stroke:#4c72b0;" x="165.354468" xlink:href="#m19967258fe" y="382.607622"/>
     <use style="fill:#4c72b0;stroke:#4c72b0;" x="170.608369" xlink:href="#m19967258fe" y="340.550919"/>
     <use style="fill:#4c72b0;stroke:#4c72b0;" x="175.862269" xlink:href="#m19967258fe" y="294.154772"/>
     <use style="fill:#4c72b0;stroke:#4c72b0;" x="181.11617" xlink:href="#m19967258fe" y="246.70428"/>
     <use style="fill:#4c72b0;stroke:#4c72b0;" x="186.370071" xlink:href="#m19967258fe" y="201.387292"/>
     <use style="fill:#4c72b0;stroke:#4c72b0;" x="191.623972" xlink:href="#m19967258fe" y="161.068014"/>
     <use style="fill:#4c72b0;stroke:#4c72b0;" x="196.877705" xlink:href="#m19967258fe" y="128.089696"/>
     <use style="fill:#4c72b0;stroke:#4c72b0;" x="202.131606" xlink:href="#m19967258fe" y="104.125863"/>
     <use style="fill:#4c72b0;stroke:#4c72b0;" x="207.385507" xlink:href="#m19967258fe" y="90.086231"/>
     <use style="fill:#4c72b0;stroke:#4c72b0;" x="212.639408" xlink:href="#m19967258fe" y="86.087625"/>
     <use style="fill:#4c72b0;stroke:#4c72b0;" x="217.893309" xlink:href="#m19967258fe" y="91.483731"/>
     <use style="fill:#4c72b0;stroke:#4c72b0;" x="223.147209" xlink:href="#m19967258fe" y="104.956924"/>
     <use style="fill:#4c72b0;stroke:#4c72b0;" x="228.40111" xlink:href="#m19967258fe" y="124.656675"/>
     <use style="fill:#4c72b0;stroke:#4c72b0;" x="233.655011" xlink:href="#m19967258fe" y="148.373507"/>
     <use style="fill:#4c72b0;stroke:#4c72b0;" x="238.908912" xlink:href="#m19967258fe" y="173.736059"/>
     <use style="fill:#4c72b0;stroke:#4c72b0;" x="244.162813" xlink:href="#m19967258fe" y="198.409678"/>
     <use style="fill:#4c72b0;stroke:#4c72b0;" x="249.416546" xlink:href="#m19967258fe" y="220.283908"/>
     <use style="fill:#4c72b0;stroke:#4c72b0;" x="254.670447" xlink:href="#m19967258fe" y="237.632602"/>
     <use style="fill:#4c72b0;stroke:#4c72b0;" x="259.924348" xlink:href="#m19967258fe" y="249.23417"/>
     <use style="fill:#4c72b0;stroke:#4c72b0;" x="265.178249" xlink:href="#m19967258fe" y="254.444918"/>
     <use style="fill:#4c72b0;stroke:#4c72b0;" x="270.432149" xlink:href="#m19967258fe" y="253.219362"/>
     <use style="fill:#4c72b0;stroke:#4c72b0;" x="275.68605" xlink:href="#m19967258fe" y="246.08199"/>
     <use style="fill:#4c72b0;stroke:#4c72b0;" x="280.940118" xlink:href="#m19967258fe" y="234.046844"/>
     <use style="fill:#4c72b0;stroke:#4c72b0;" x="286.193016" xlink:href="#m19967258fe" y="218.505327"/>
     <use style="fill:#4c72b0;stroke:#4c72b0;" x="291.447585" xlink:href="#m19967258fe" y="201.08255"/>
     <use style="fill:#4c72b0;stroke:#4c72b0;" x="296.702155" xlink:href="#m19967258fe" y="183.482323"/>
     <use style="fill:#4c72b0;stroke:#4c72b0;" x="301.955053" xlink:href="#m19967258fe" y="167.332192"/>
     <use style="fill:#4c72b0;stroke:#4c72b0;" x="307.209622" xlink:href="#m19967258fe" y="154.042406"/>
     <use style="fill:#4c72b0;stroke:#4c72b0;" x="312.46252" xlink:href="#m19967258fe" y="144.690557"/>
     <use style="fill:#4c72b0;stroke:#4c72b0;" x="317.717089" xlink:href="#m19967258fe" y="139.940947"/>
     <use style="fill:#4c72b0;stroke:#4c72b0;" x="322.971659" xlink:href="#m19967258fe" y="140.004481"/>
     <use style="fill:#4c72b0;stroke:#4c72b0;" x="328.224557" xlink:href="#m19967258fe" y="144.640316"/>
     <use style="fill:#4c72b0;stroke:#4c72b0;" x="333.479126" xlink:href="#m19967258fe" y="153.198723"/>
     <use style="fill:#4c72b0;stroke:#4c72b0;" x="338.732024" xlink:href="#m19967258fe" y="164.698039"/>
     <use style="fill:#4c72b0;stroke:#4c72b0;" x="343.986593" xlink:href="#m19967258fe" y="177.929108"/>
     <use style="fill:#4c72b0;stroke:#4c72b0;" x="349.241163" xlink:href="#m19967258fe" y="191.575726"/>
     <use style="fill:#4c72b0;stroke:#4c72b0;" x="354.494061" xlink:href="#m19967258fe" y="204.339664"/>
     <use style="fill:#4c72b0;stroke:#4c72b0;" x="359.74863" xlink:href="#m19967258fe" y="215.059684"/>
     <use style="fill:#4c72b0;stroke:#4c72b0;" x="365.001528" xlink:href="#m19967258fe" y="222.812883"/>
     <use style="fill:#4c72b0;stroke:#4c72b0;" x="370.256097" xlink:href="#m19967258fe" y="226.990444"/>
     <use style="fill:#4c72b0;stroke:#4c72b0;" x="375.510667" xlink:href="#m19967258fe" y="227.341831"/>
     <use style="fill:#4c72b0;stroke:#4c72b0;" x="380.763565" xlink:href="#m19967258fe" y="223.984295"/>
     <use style="fill:#4c72b0;stroke:#4c72b0;" x="386.018134" xlink:href="#m19967258fe" y="217.377998"/>
     <use style="fill:#4c72b0;stroke:#4c72b0;" x="391.271032" xlink:href="#m19967258fe" y="208.27059"/>
     <use style="fill:#4c72b0;stroke:#4c72b0;" x="396.525601" xlink:href="#m19967258fe" y="197.617091"/>
     <use style="fill:#4c72b0;stroke:#4c72b0;" x="401.778499" xlink:href="#m19967258fe" y="186.483302"/>
     <use style="fill:#4c72b0;stroke:#4c72b0;" x="407.033069" xlink:href="#m19967258fe" y="175.942183"/>
     <use style="fill:#4c72b0;stroke:#4c72b0;" x="412.287638" xlink:href="#m19967258fe" y="166.973305"/>
     <use style="fill:#4c72b0;stroke:#4c72b0;" x="417.540536" xlink:href="#m19967258fe" y="160.374142"/>
     <use style="fill:#4c72b0;stroke:#4c72b0;" x="422.795106" xlink:href="#m19967258fe" y="156.691498"/>
     <use style="fill:#4c72b0;stroke:#4c72b0;" x="428.048003" xlink:href="#m19967258fe" y="156.178044"/>
     <use style="fill:#4c72b0;stroke:#4c72b0;" x="433.302573" xlink:href="#m19967258fe" y="158.77848"/>
     <use style="fill:#4c72b0;stroke:#4c72b0;" x="438.557142" xlink:href="#m19967258fe" y="164.144404"/>
     <use style="fill:#4c72b0;stroke:#4c72b0;" x="443.81004" xlink:href="#m19967258fe" y="171.676393"/>
     <use style="fill:#4c72b0;stroke:#4c72b0;" x="449.06461" xlink:href="#m19967258fe" y="180.58826"/>
     <use style="fill:#4c72b0;stroke:#4c72b0;" x="454.317507" xlink:href="#m19967258fe" y="189.987082"/>
     <use style="fill:#4c72b0;stroke:#4c72b0;" x="459.572077" xlink:href="#m19967258fe" y="198.960813"/>
     <use style="fill:#4c72b0;stroke:#4c72b0;" x="464.826646" xlink:href="#m19967258fe" y="206.66505"/>
     <use style="fill:#4c72b0;stroke:#4c72b0;" x="470.079544" xlink:href="#m19967258fe" y="212.40102"/>
     <use style="fill:#4c72b0;stroke:#4c72b0;" x="475.334114" xlink:href="#m19967258fe" y="215.677401"/>
     <use style="fill:#4c72b0;stroke:#4c72b0;" x="480.587011" xlink:href="#m19967258fe" y="216.2514"/>
     <use style="fill:#4c72b0;stroke:#4c72b0;" x="485.841581" xlink:href="#m19967258fe" y="214.144419"/>
     <use style="fill:#4c72b0;stroke:#4c72b0;" x="491.094478" xlink:href="#m19967258fe" y="209.632848"/>
     <use style="fill:#4c72b0;stroke:#4c72b0;" x="496.349048" xlink:href="#m19967258fe" y="203.214957"/>
     <use style="fill:#4c72b0;stroke:#4c72b0;" x="501.603618" xlink:href="#m19967258fe" y="195.557364"/>
     <use style="fill:#4c72b0;stroke:#4c72b0;" x="506.856515" xlink:href="#m19967258fe" y="187.427328"/>
     <use style="fill:#4c72b0;stroke:#4c72b0;" x="512.111085" xlink:href="#m19967258fe" y="179.6169"/>
     <use style="fill:#4c72b0;stroke:#4c72b0;" x="517.363982" xlink:href="#m19967258fe" y="172.867073"/>
     <use style="fill:#4c72b0;stroke:#4c72b0;" x="522.618552" xlink:href="#m19967258fe" y="167.798269"/>
     <use style="fill:#4c72b0;stroke:#4c72b0;" x="527.873122" xlink:href="#m19967258fe" y="164.854373"/>
     <use style="fill:#4c72b0;stroke:#4c72b0;" x="533.126019" xlink:href="#m19967258fe" y="164.264826"/>
     <use style="fill:#4c72b0;stroke:#4c72b0;" x="538.380589" xlink:href="#m19967258fe" y="166.02792"/>
     <use style="fill:#4c72b0;stroke:#4c72b0;" x="543.633486" xlink:href="#m19967258fe" y="169.916653"/>
     <use style="fill:#4c72b0;stroke:#4c72b0;" x="548.888056" xlink:href="#m19967258fe" y="175.505921"/>
     <use style="fill:#4c72b0;stroke:#4c72b0;" x="554.142626" xlink:href="#m19967258fe" y="182.217641"/>
     <use style="fill:#4c72b0;stroke:#4c72b0;" x="559.395523" xlink:href="#m19967258fe" y="189.379895"/>
     <use style="fill:#4c72b0;stroke:#4c72b0;" x="564.650093" xlink:href="#m19967258fe" y="196.293124"/>
     <use style="fill:#4c72b0;stroke:#4c72b0;" x="569.90299" xlink:href="#m19967258fe" y="202.297802"/>
     <use style="fill:#4c72b0;stroke:#4c72b0;" x="575.15756" xlink:href="#m19967258fe" y="206.836689"/>
     <use style="fill:#4c72b0;stroke:#4c72b0;" x="580.41213" xlink:href="#m19967258fe" y="209.505902"/>
     <use style="fill:#4c72b0;stroke:#4c72b0;" x="585.665027" xlink:href="#m19967258fe" y="210.090023"/>
     <use style="fill:#4c72b0;stroke:#4c72b0;" x="590.919597" xlink:href="#m19967258fe" y="208.578808"/>
     <use style="fill:#4c72b0;stroke:#4c72b0;" x="596.172494" xlink:href="#m19967258fe" y="205.163469"/>
     <use style="fill:#4c72b0;stroke:#4c72b0;" x="601.427064" xlink:href="#m19967258fe" y="200.214295"/>
     <use style="fill:#4c72b0;stroke:#4c72b0;" x="606.679961" xlink:href="#m19967258fe" y="194.240994"/>
     <use style="fill:#4c72b0;stroke:#4c72b0;" x="611.934531" xlink:href="#m19967258fe" y="187.841115"/>
     <use style="fill:#4c72b0;stroke:#4c72b0;" x="617.189101" xlink:href="#m19967258fe" y="181.640715"/>
     <use style="fill:#4c72b0;stroke:#4c72b0;" x="622.441998" xlink:href="#m19967258fe" y="176.233633"/>
     <use style="fill:#4c72b0;stroke:#4c72b0;" x="627.696568" xlink:href="#m19967258fe" y="172.125276"/>
     <use style="fill:#4c72b0;stroke:#4c72b0;" x="632.949465" xlink:href="#m19967258fe" y="169.685748"/>
     <use style="fill:#4c72b0;stroke:#4c72b0;" x="638.204035" xlink:href="#m19967258fe" y="169.116931"/>
     <use style="fill:#4c72b0;stroke:#4c72b0;" x="643.458605" xlink:href="#m19967258fe" y="170.436569"/>
    </g>
   </g>
   <g id="line2d_15">
    <path clip-path="url(#p4d61127246)" d="M 123.323395 311.255699 
L 128.577279 363.593374 
L 133.83123 405.806136 
L 139.085131 435.639564 
L 144.338865 451.691223 
L 149.592765 453.495166 
L 154.846666 441.534242 
L 160.100567 417.187361 
L 165.354468 382.60849 
L 170.608369 340.551628 
L 175.862269 294.155387 
L 181.11617 246.704553 
L 186.370071 201.387454 
L 191.623972 161.067993 
L 196.877705 128.09054 
L 202.131606 104.126271 
L 207.385507 90.086536 
L 212.639408 86.087569 
L 217.893309 91.483602 
L 223.147209 104.956857 
L 228.40111 124.656458 
L 233.655011 148.373373 
L 238.908912 173.735985 
L 244.162813 198.409671 
L 249.416546 220.283368 
L 254.670447 237.63222 
L 259.924348 249.233956 
L 265.178249 254.444766 
L 270.432149 253.219651 
L 275.68605 246.082094 
L 280.940118 234.046554 
L 286.193016 218.508107 
L 291.447585 201.083165 
L 296.702155 183.480685 
L 301.955053 167.333571 
L 307.209622 154.041954 
L 312.46252 144.691594 
L 317.717089 139.940992 
L 322.971659 140.004726 
L 328.224557 144.639813 
L 333.479126 153.199261 
L 338.732024 164.696349 
L 343.986593 177.929092 
L 349.241163 191.577434 
L 354.494061 204.338959 
L 359.74863 215.060366 
L 365.001528 222.812183 
L 370.256097 226.990484 
L 375.510667 227.341636 
L 380.763565 223.984533 
L 386.018134 217.377309 
L 391.271032 208.271625 
L 396.525601 197.616798 
L 401.778499 186.485055 
L 407.033069 175.942458 
L 412.287638 166.972492 
L 417.540536 160.374616 
L 422.795106 156.69139 
L 428.048003 156.177884 
L 433.302573 158.77844 
L 438.557142 164.145195 
L 443.81004 171.675798 
L 449.06461 180.588802 
L 454.317507 189.985892 
L 459.572077 198.960857 
L 464.826646 206.66598 
L 470.079544 212.400745 
L 475.334114 215.677557 
L 480.587011 216.251487 
L 485.841581 214.144332 
L 491.094478 209.633779 
L 496.349048 203.21522 
L 501.603618 195.556632 
L 506.856515 187.428104 
L 512.111085 179.616668 
L 517.363982 172.868004 
L 522.618552 167.798366 
L 527.873122 164.854196 
L 533.126019 164.264785 
L 538.380589 166.02807 
L 543.633486 169.916017 
L 548.888056 175.505887 
L 554.142626 182.218541 
L 559.395523 189.379442 
L 564.650093 196.29354 
L 569.90299 202.297137 
L 575.15756 206.836736 
L 580.41213 209.506134 
L 585.665027 210.090053 
L 590.919597 208.57858 
L 596.172494 205.163918 
L 601.427064 200.214137 
L 606.679961 194.242014 
L 611.934531 187.841321 
L 617.189101 181.640115 
L 622.441998 176.234059 
L 627.696568 172.125138 
L 632.949465 169.685943 
L 638.204035 169.116905 
L 643.458605 170.436849 
" style="fill:none;stroke:#c44e52;stroke-linecap:round;stroke-width:1.5;"/>
   </g>
   <g id="patch_3">
    <path d="M 93.51 475.4736 
L 93.51 64.1088 
" style="fill:none;stroke:#ffffff;stroke-linecap:square;stroke-linejoin:miter;stroke-width:1.25;"/>
   </g>
   <g id="patch_4">
    <path d="M 673.272 475.4736 
L 673.272 64.1088 
" style="fill:none;stroke:#ffffff;stroke-linecap:square;stroke-linejoin:miter;stroke-width:1.25;"/>
   </g>
   <g id="patch_5">
    <path d="M 93.51 475.4736 
L 673.272 475.4736 
" style="fill:none;stroke:#ffffff;stroke-linecap:square;stroke-linejoin:miter;stroke-width:1.25;"/>
   </g>
   <g id="patch_6">
    <path d="M 93.51 64.1088 
L 673.272 64.1088 
" style="fill:none;stroke:#ffffff;stroke-linecap:square;stroke-linejoin:miter;stroke-width:1.25;"/>
   </g>
   <g id="text_17">
    <!-- Numerical Derivative of $\frac{sin(x)}{x}$ -->
    <defs>
     <path d="M 7.625 0 
L 7.625 71.578125 
L 17.328125 71.578125 
L 54.9375 15.375 
L 54.9375 71.578125 
L 64.015625 71.578125 
L 64.015625 0 
L 54.296875 0 
L 16.703125 56.25 
L 16.703125 0 
z
" id="ArialMT-78"/>
     <path d="M 40.578125 0 
L 40.578125 7.625 
Q 34.515625 -1.171875 24.125 -1.171875 
Q 19.53125 -1.171875 15.546875 0.578125 
Q 11.578125 2.34375 9.640625 5 
Q 7.71875 7.671875 6.9375 11.53125 
Q 6.390625 14.109375 6.390625 19.734375 
L 6.390625 51.859375 
L 15.1875 51.859375 
L 15.1875 23.09375 
Q 15.1875 16.21875 15.71875 13.8125 
Q 16.546875 10.359375 19.234375 8.375 
Q 21.921875 6.390625 25.875 6.390625 
Q 29.828125 6.390625 33.296875 8.421875 
Q 36.765625 10.453125 38.203125 13.9375 
Q 39.65625 17.4375 39.65625 24.078125 
L 39.65625 51.859375 
L 48.4375 51.859375 
L 48.4375 0 
z
" id="ArialMT-117"/>
     <path d="M 6.59375 0 
L 6.59375 51.859375 
L 14.453125 51.859375 
L 14.453125 44.578125 
Q 16.890625 48.390625 20.9375 50.703125 
Q 25 53.03125 30.171875 53.03125 
Q 35.9375 53.03125 39.625 50.640625 
Q 43.3125 48.25 44.828125 43.953125 
Q 50.984375 53.03125 60.84375 53.03125 
Q 68.5625 53.03125 72.703125 48.75 
Q 76.859375 44.484375 76.859375 35.59375 
L 76.859375 0 
L 68.109375 0 
L 68.109375 32.671875 
Q 68.109375 37.9375 67.25 40.25 
Q 66.40625 42.578125 64.15625 43.984375 
Q 61.921875 45.40625 58.890625 45.40625 
Q 53.421875 45.40625 49.796875 41.765625 
Q 46.1875 38.140625 46.1875 30.125 
L 46.1875 0 
L 37.40625 0 
L 37.40625 33.6875 
Q 37.40625 39.546875 35.25 42.46875 
Q 33.109375 45.40625 28.21875 45.40625 
Q 24.515625 45.40625 21.359375 43.453125 
Q 18.21875 41.5 16.796875 37.734375 
Q 15.375 33.984375 15.375 26.90625 
L 15.375 0 
z
" id="ArialMT-109"/>
     <path d="M 42.09375 16.703125 
L 51.171875 15.578125 
Q 49.03125 7.625 43.21875 3.21875 
Q 37.40625 -1.171875 28.375 -1.171875 
Q 17 -1.171875 10.328125 5.828125 
Q 3.65625 12.84375 3.65625 25.484375 
Q 3.65625 38.578125 10.390625 45.796875 
Q 17.140625 53.03125 27.875 53.03125 
Q 38.28125 53.03125 44.875 45.953125 
Q 51.46875 38.875 51.46875 26.03125 
Q 51.46875 25.25 51.421875 23.6875 
L 12.75 23.6875 
Q 13.234375 15.140625 17.578125 10.59375 
Q 21.921875 6.0625 28.421875 6.0625 
Q 33.25 6.0625 36.671875 8.59375 
Q 40.09375 11.140625 42.09375 16.703125 
z
M 13.234375 30.90625 
L 42.1875 30.90625 
Q 41.609375 37.453125 38.875 40.71875 
Q 34.671875 45.796875 27.984375 45.796875 
Q 21.921875 45.796875 17.796875 41.75 
Q 13.671875 37.703125 13.234375 30.90625 
z
" id="ArialMT-101"/>
     <path d="M 6.5 0 
L 6.5 51.859375 
L 14.40625 51.859375 
L 14.40625 44 
Q 17.4375 49.515625 20 51.265625 
Q 22.5625 53.03125 25.640625 53.03125 
Q 30.078125 53.03125 34.671875 50.203125 
L 31.640625 42.046875 
Q 28.421875 43.953125 25.203125 43.953125 
Q 22.3125 43.953125 20.015625 42.21875 
Q 17.71875 40.484375 16.75 37.40625 
Q 15.28125 32.71875 15.28125 27.15625 
L 15.28125 0 
z
" id="ArialMT-114"/>
     <path d="M 6.640625 61.46875 
L 6.640625 71.578125 
L 15.4375 71.578125 
L 15.4375 61.46875 
z
M 6.640625 0 
L 6.640625 51.859375 
L 15.4375 51.859375 
L 15.4375 0 
z
" id="ArialMT-105"/>
     <path d="M 40.4375 19 
L 49.078125 17.875 
Q 47.65625 8.9375 41.8125 3.875 
Q 35.984375 -1.171875 27.484375 -1.171875 
Q 16.84375 -1.171875 10.375 5.78125 
Q 3.90625 12.75 3.90625 25.734375 
Q 3.90625 34.125 6.6875 40.421875 
Q 9.46875 46.734375 15.15625 49.875 
Q 20.84375 53.03125 27.546875 53.03125 
Q 35.984375 53.03125 41.359375 48.75 
Q 46.734375 44.484375 48.25 36.625 
L 39.703125 35.296875 
Q 38.484375 40.53125 35.375 43.15625 
Q 32.28125 45.796875 27.875 45.796875 
Q 21.234375 45.796875 17.078125 41.03125 
Q 12.9375 36.28125 12.9375 25.984375 
Q 12.9375 15.53125 16.9375 10.796875 
Q 20.953125 6.0625 27.390625 6.0625 
Q 32.5625 6.0625 36.03125 9.234375 
Q 39.5 12.40625 40.4375 19 
z
" id="ArialMT-99"/>
     <path d="M 40.4375 6.390625 
Q 35.546875 2.25 31.03125 0.53125 
Q 26.515625 -1.171875 21.34375 -1.171875 
Q 12.796875 -1.171875 8.203125 3 
Q 3.609375 7.171875 3.609375 13.671875 
Q 3.609375 17.484375 5.34375 20.625 
Q 7.078125 23.78125 9.890625 25.6875 
Q 12.703125 27.59375 16.21875 28.5625 
Q 18.796875 29.25 24.03125 29.890625 
Q 34.671875 31.15625 39.703125 32.90625 
Q 39.75 34.71875 39.75 35.203125 
Q 39.75 40.578125 37.25 42.78125 
Q 33.890625 45.75 27.25 45.75 
Q 21.046875 45.75 18.09375 43.578125 
Q 15.140625 41.40625 13.71875 35.890625 
L 5.125 37.0625 
Q 6.296875 42.578125 8.984375 45.96875 
Q 11.671875 49.359375 16.75 51.1875 
Q 21.828125 53.03125 28.515625 53.03125 
Q 35.15625 53.03125 39.296875 51.46875 
Q 43.453125 49.90625 45.40625 47.53125 
Q 47.359375 45.171875 48.140625 41.546875 
Q 48.578125 39.3125 48.578125 33.453125 
L 48.578125 21.734375 
Q 48.578125 9.46875 49.140625 6.21875 
Q 49.703125 2.984375 51.375 0 
L 42.1875 0 
Q 40.828125 2.734375 40.4375 6.390625 
z
M 39.703125 26.03125 
Q 34.90625 24.078125 25.34375 22.703125 
Q 19.921875 21.921875 17.671875 20.9375 
Q 15.4375 19.96875 14.203125 18.09375 
Q 12.984375 16.21875 12.984375 13.921875 
Q 12.984375 10.40625 15.640625 8.0625 
Q 18.3125 5.71875 23.4375 5.71875 
Q 28.515625 5.71875 32.46875 7.9375 
Q 36.421875 10.15625 38.28125 14.015625 
Q 39.703125 17 39.703125 22.796875 
z
" id="ArialMT-97"/>
     <path d="M 6.390625 0 
L 6.390625 71.578125 
L 15.1875 71.578125 
L 15.1875 0 
z
" id="ArialMT-108"/>
     <path id="ArialMT-32"/>
     <path d="M 7.71875 0 
L 7.71875 71.578125 
L 32.375 71.578125 
Q 40.71875 71.578125 45.125 70.5625 
Q 51.265625 69.140625 55.609375 65.4375 
Q 61.28125 60.640625 64.078125 53.1875 
Q 66.890625 45.75 66.890625 36.1875 
Q 66.890625 28.03125 64.984375 21.734375 
Q 63.09375 15.4375 60.109375 11.296875 
Q 57.125 7.171875 53.578125 4.796875 
Q 50.046875 2.4375 45.046875 1.21875 
Q 40.046875 0 33.546875 0 
z
M 17.1875 8.453125 
L 32.46875 8.453125 
Q 39.546875 8.453125 43.578125 9.765625 
Q 47.609375 11.078125 50 13.484375 
Q 53.375 16.84375 55.25 22.53125 
Q 57.125 28.21875 57.125 36.328125 
Q 57.125 47.5625 53.4375 53.59375 
Q 49.75 59.625 44.484375 61.671875 
Q 40.671875 63.140625 32.234375 63.140625 
L 17.1875 63.140625 
z
" id="ArialMT-68"/>
     <path d="M 21 0 
L 1.265625 51.859375 
L 10.546875 51.859375 
L 21.6875 20.796875 
Q 23.484375 15.765625 25 10.359375 
Q 26.171875 14.453125 28.265625 20.21875 
L 39.796875 51.859375 
L 48.828125 51.859375 
L 29.203125 0 
z
" id="ArialMT-118"/>
     <path d="M 25.78125 7.859375 
L 27.046875 0.09375 
Q 23.34375 -0.6875 20.40625 -0.6875 
Q 15.625 -0.6875 12.984375 0.828125 
Q 10.359375 2.34375 9.28125 4.8125 
Q 8.203125 7.28125 8.203125 15.1875 
L 8.203125 45.015625 
L 1.765625 45.015625 
L 1.765625 51.859375 
L 8.203125 51.859375 
L 8.203125 64.703125 
L 16.9375 69.96875 
L 16.9375 51.859375 
L 25.78125 51.859375 
L 25.78125 45.015625 
L 16.9375 45.015625 
L 16.9375 14.703125 
Q 16.9375 10.9375 17.40625 9.859375 
Q 17.875 8.796875 18.921875 8.15625 
Q 19.96875 7.515625 21.921875 7.515625 
Q 23.390625 7.515625 25.78125 7.859375 
z
" id="ArialMT-116"/>
     <path d="M 3.328125 25.921875 
Q 3.328125 40.328125 11.328125 47.265625 
Q 18.015625 53.03125 27.640625 53.03125 
Q 38.328125 53.03125 45.109375 46.015625 
Q 51.90625 39.015625 51.90625 26.65625 
Q 51.90625 16.65625 48.90625 10.90625 
Q 45.90625 5.171875 40.15625 2 
Q 34.421875 -1.171875 27.640625 -1.171875 
Q 16.75 -1.171875 10.03125 5.8125 
Q 3.328125 12.796875 3.328125 25.921875 
z
M 12.359375 25.921875 
Q 12.359375 15.96875 16.703125 11.015625 
Q 21.046875 6.0625 27.640625 6.0625 
Q 34.1875 6.0625 38.53125 11.03125 
Q 42.875 16.015625 42.875 26.21875 
Q 42.875 35.84375 38.5 40.796875 
Q 34.125 45.75 27.640625 45.75 
Q 21.046875 45.75 16.703125 40.8125 
Q 12.359375 35.890625 12.359375 25.921875 
z
" id="ArialMT-111"/>
     <path d="M 8.6875 0 
L 8.6875 45.015625 
L 0.921875 45.015625 
L 0.921875 51.859375 
L 8.6875 51.859375 
L 8.6875 57.375 
Q 8.6875 62.59375 9.625 65.140625 
Q 10.890625 68.5625 14.078125 70.671875 
Q 17.28125 72.796875 23.046875 72.796875 
Q 26.765625 72.796875 31.25 71.921875 
L 29.9375 64.265625 
Q 27.203125 64.75 24.75 64.75 
Q 20.75 64.75 19.09375 63.03125 
Q 17.4375 61.328125 17.4375 56.640625 
L 17.4375 51.859375 
L 27.546875 51.859375 
L 27.546875 45.015625 
L 17.4375 45.015625 
L 17.4375 0 
z
" id="ArialMT-102"/>
     <path d="M 50 53.078125 
L 48.296875 44.578125 
Q 44.734375 46.53125 40.765625 47.5 
Q 36.8125 48.484375 32.625 48.484375 
Q 25.53125 48.484375 21.453125 46.0625 
Q 17.390625 43.65625 17.390625 39.5 
Q 17.390625 34.671875 26.859375 32.078125 
Q 27.59375 31.890625 27.9375 31.78125 
L 30.8125 30.90625 
Q 39.796875 28.421875 42.796875 25.6875 
Q 45.796875 22.953125 45.796875 18.21875 
Q 45.796875 9.515625 38.890625 4.046875 
Q 31.984375 -1.421875 20.796875 -1.421875 
Q 16.453125 -1.421875 11.671875 -0.578125 
Q 6.890625 0.25 1.125 2 
L 2.875 11.28125 
Q 7.8125 8.734375 12.59375 7.421875 
Q 17.390625 6.109375 21.78125 6.109375 
Q 28.375 6.109375 32.5 8.9375 
Q 36.625 11.765625 36.625 16.109375 
Q 36.625 20.796875 25.78125 23.6875 
L 24.859375 23.921875 
L 21.78125 24.703125 
Q 14.9375 26.515625 11.765625 29.46875 
Q 8.59375 32.421875 8.59375 37.015625 
Q 8.59375 45.75 15.15625 50.875 
Q 21.734375 56 33.015625 56 
Q 37.453125 56 41.671875 55.265625 
Q 45.90625 54.546875 50 53.078125 
z
" id="DejaVuSans-Oblique-115"/>
     <path d="M 18.3125 75.984375 
L 27.296875 75.984375 
L 25.09375 64.59375 
L 16.109375 64.59375 
z
M 14.203125 54.6875 
L 23.1875 54.6875 
L 12.5 0 
L 3.515625 0 
z
" id="DejaVuSans-Oblique-105"/>
     <path d="M 55.71875 33.015625 
L 49.3125 0 
L 40.28125 0 
L 46.6875 32.671875 
Q 47.125 34.96875 47.359375 36.71875 
Q 47.609375 38.484375 47.609375 39.5 
Q 47.609375 43.609375 45.015625 45.890625 
Q 42.4375 48.1875 37.796875 48.1875 
Q 30.5625 48.1875 25.34375 43.375 
Q 20.125 38.578125 18.5 30.328125 
L 12.5 0 
L 3.515625 0 
L 14.109375 54.6875 
L 23.09375 54.6875 
L 21.296875 46.09375 
Q 25.046875 50.828125 30.3125 53.40625 
Q 35.59375 56 41.40625 56 
Q 48.640625 56 52.609375 52.09375 
Q 56.59375 48.1875 56.59375 41.109375 
Q 56.59375 39.359375 56.375 37.359375 
Q 56.15625 35.359375 55.71875 33.015625 
z
" id="DejaVuSans-Oblique-110"/>
     <path d="M 31 75.875 
Q 24.46875 64.65625 21.28125 53.65625 
Q 18.109375 42.671875 18.109375 31.390625 
Q 18.109375 20.125 21.3125 9.0625 
Q 24.515625 -2 31 -13.1875 
L 23.1875 -13.1875 
Q 15.875 -1.703125 12.234375 9.375 
Q 8.59375 20.453125 8.59375 31.390625 
Q 8.59375 42.28125 12.203125 53.3125 
Q 15.828125 64.359375 23.1875 75.875 
z
" id="DejaVuSans-40"/>
     <path d="M 60.015625 54.6875 
L 34.90625 27.875 
L 50.296875 0 
L 39.984375 0 
L 28.421875 21.6875 
L 8.296875 0 
L -2.59375 0 
L 24.3125 28.8125 
L 10.015625 54.6875 
L 20.3125 54.6875 
L 30.8125 34.90625 
L 49.125 54.6875 
z
" id="DejaVuSans-Oblique-120"/>
     <path d="M 8.015625 75.875 
L 15.828125 75.875 
Q 23.140625 64.359375 26.78125 53.3125 
Q 30.421875 42.28125 30.421875 31.390625 
Q 30.421875 20.453125 26.78125 9.375 
Q 23.140625 -1.703125 15.828125 -13.1875 
L 8.015625 -13.1875 
Q 14.5 -2 17.703125 9.0625 
Q 20.90625 20.125 20.90625 31.390625 
Q 20.90625 42.671875 17.703125 53.65625 
Q 14.5 64.65625 8.015625 75.875 
z
" id="DejaVuSans-41"/>
    </defs>
    <g style="fill:#262626;" transform="translate(307.131 58.1088)scale(0.12 -0.12)">
     <use transform="translate(0 0.782813)" xlink:href="#ArialMT-78"/>
     <use transform="translate(72.216797 0.782813)" xlink:href="#ArialMT-117"/>
     <use transform="translate(127.832031 0.782813)" xlink:href="#ArialMT-109"/>
     <use transform="translate(211.132812 0.782813)" xlink:href="#ArialMT-101"/>
     <use transform="translate(266.748047 0.782813)" xlink:href="#ArialMT-114"/>
     <use transform="translate(300.048828 0.782813)" xlink:href="#ArialMT-105"/>
     <use transform="translate(322.265625 0.782813)" xlink:href="#ArialMT-99"/>
     <use transform="translate(372.265625 0.782813)" xlink:href="#ArialMT-97"/>
     <use transform="translate(427.880859 0.782813)" xlink:href="#ArialMT-108"/>
     <use transform="translate(450.097656 0.782813)" xlink:href="#ArialMT-32"/>
     <use transform="translate(477.880859 0.782813)" xlink:href="#ArialMT-68"/>
     <use transform="translate(550.097656 0.782813)" xlink:href="#ArialMT-101"/>
     <use transform="translate(605.712891 0.782813)" xlink:href="#ArialMT-114"/>
     <use transform="translate(639.013672 0.782813)" xlink:href="#ArialMT-105"/>
     <use transform="translate(661.230469 0.782813)" xlink:href="#ArialMT-118"/>
     <use transform="translate(711.230469 0.782813)" xlink:href="#ArialMT-97"/>
     <use transform="translate(766.845703 0.782813)" xlink:href="#ArialMT-116"/>
     <use transform="translate(794.628906 0.782813)" xlink:href="#ArialMT-105"/>
     <use transform="translate(816.845703 0.782813)" xlink:href="#ArialMT-118"/>
     <use transform="translate(866.845703 0.782813)" xlink:href="#ArialMT-101"/>
     <use transform="translate(922.460938 0.782813)" xlink:href="#ArialMT-32"/>
     <use transform="translate(950.244141 0.782813)" xlink:href="#ArialMT-111"/>
     <use transform="translate(1005.859375 0.782813)" xlink:href="#ArialMT-102"/>
     <use transform="translate(1033.642578 0.782813)" xlink:href="#ArialMT-32"/>
     <use transform="translate(1061.425781 53.810938)scale(0.7)" xlink:href="#DejaVuSans-Oblique-115"/>
     <use transform="translate(1097.895508 53.810938)scale(0.7)" xlink:href="#DejaVuSans-Oblique-105"/>
     <use transform="translate(1117.34375 53.810938)scale(0.7)" xlink:href="#DejaVuSans-Oblique-110"/>
     <use transform="translate(1161.708984 53.810938)scale(0.7)" xlink:href="#DejaVuSans-40"/>
     <use transform="translate(1189.018555 53.810938)scale(0.7)" xlink:href="#DejaVuSans-Oblique-120"/>
     <use transform="translate(1230.444336 53.810938)scale(0.7)" xlink:href="#DejaVuSans-41"/>
     <use transform="translate(1138.425781 -24.951562)scale(0.7)" xlink:href="#DejaVuSans-Oblique-120"/>
     <path d="M 1061.425781 19.579688 
L 1061.425781 25.829688 
L 1257.753906 25.829688 
L 1257.753906 19.579688 
L 1061.425781 19.579688 
z
"/>
    </g>
   </g>
   <g id="legend_1">
    <g id="patch_7">
     <path d="M 538.057938 104.291456 
L 665.572 104.291456 
Q 667.772 104.291456 667.772 102.091456 
L 667.772 71.8088 
Q 667.772 69.6088 665.572 69.6088 
L 538.057938 69.6088 
Q 535.857938 69.6088 535.857938 71.8088 
L 535.857938 102.091456 
Q 535.857938 104.291456 538.057938 104.291456 
z
" style="fill:#eaeaf2;opacity:0.8;stroke:#cccccc;stroke-linejoin:miter;"/>
    </g>
    <g id="line2d_16">
     <path d="M 540.257938 78.166456 
L 562.257938 78.166456 
" style="fill:none;stroke:#c44e52;stroke-linecap:round;stroke-width:1.5;"/>
    </g>
    <g id="line2d_17"/>
    <g id="text_18">
     <!-- Analytic Solution -->
     <defs>
      <path d="M -0.140625 0 
L 27.34375 71.578125 
L 37.546875 71.578125 
L 66.84375 0 
L 56.0625 0 
L 47.703125 21.6875 
L 17.78125 21.6875 
L 9.90625 0 
z
M 20.515625 29.390625 
L 44.78125 29.390625 
L 37.3125 49.21875 
Q 33.890625 58.25 32.234375 64.0625 
Q 30.859375 57.171875 28.375 50.390625 
z
" id="ArialMT-65"/>
      <path d="M 6.59375 0 
L 6.59375 51.859375 
L 14.5 51.859375 
L 14.5 44.484375 
Q 20.21875 53.03125 31 53.03125 
Q 35.6875 53.03125 39.625 51.34375 
Q 43.5625 49.65625 45.515625 46.921875 
Q 47.46875 44.1875 48.25 40.4375 
Q 48.734375 37.984375 48.734375 31.890625 
L 48.734375 0 
L 39.9375 0 
L 39.9375 31.546875 
Q 39.9375 36.921875 38.90625 39.578125 
Q 37.890625 42.234375 35.28125 43.8125 
Q 32.671875 45.40625 29.15625 45.40625 
Q 23.53125 45.40625 19.453125 41.84375 
Q 15.375 38.28125 15.375 28.328125 
L 15.375 0 
z
" id="ArialMT-110"/>
      <path d="M 4.5 23 
L 13.421875 23.78125 
Q 14.0625 18.40625 16.375 14.96875 
Q 18.703125 11.53125 23.578125 9.40625 
Q 28.46875 7.28125 34.578125 7.28125 
Q 39.984375 7.28125 44.140625 8.890625 
Q 48.296875 10.5 50.3125 13.296875 
Q 52.34375 16.109375 52.34375 19.4375 
Q 52.34375 22.796875 50.390625 25.3125 
Q 48.4375 27.828125 43.953125 29.546875 
Q 41.0625 30.671875 31.203125 33.03125 
Q 21.34375 35.40625 17.390625 37.5 
Q 12.25 40.1875 9.734375 44.15625 
Q 7.234375 48.140625 7.234375 53.078125 
Q 7.234375 58.5 10.296875 63.203125 
Q 13.375 67.921875 19.28125 70.359375 
Q 25.203125 72.796875 32.421875 72.796875 
Q 40.375 72.796875 46.453125 70.234375 
Q 52.546875 67.671875 55.8125 62.6875 
Q 59.078125 57.71875 59.328125 51.421875 
L 50.25 50.734375 
Q 49.515625 57.515625 45.28125 60.984375 
Q 41.0625 64.453125 32.8125 64.453125 
Q 24.21875 64.453125 20.28125 61.296875 
Q 16.359375 58.15625 16.359375 53.71875 
Q 16.359375 49.859375 19.140625 47.359375 
Q 21.875 44.875 33.421875 42.265625 
Q 44.96875 39.65625 49.265625 37.703125 
Q 55.515625 34.8125 58.484375 30.390625 
Q 61.46875 25.984375 61.46875 20.21875 
Q 61.46875 14.5 58.203125 9.4375 
Q 54.9375 4.390625 48.796875 1.578125 
Q 42.671875 -1.21875 35.015625 -1.21875 
Q 25.296875 -1.21875 18.71875 1.609375 
Q 12.15625 4.4375 8.421875 10.125 
Q 4.6875 15.828125 4.5 23 
z
" id="ArialMT-83"/>
     </defs>
     <g style="fill:#262626;" transform="translate(571.057937 82.016456)scale(0.11 -0.11)">
      <use xlink:href="#ArialMT-65"/>
      <use x="66.699219" xlink:href="#ArialMT-110"/>
      <use x="122.314453" xlink:href="#ArialMT-97"/>
      <use x="177.929688" xlink:href="#ArialMT-108"/>
      <use x="200.146484" xlink:href="#ArialMT-121"/>
      <use x="250.146484" xlink:href="#ArialMT-116"/>
      <use x="277.929688" xlink:href="#ArialMT-105"/>
      <use x="300.146484" xlink:href="#ArialMT-99"/>
      <use x="350.146484" xlink:href="#ArialMT-32"/>
      <use x="377.929688" xlink:href="#ArialMT-83"/>
      <use x="444.628906" xlink:href="#ArialMT-111"/>
      <use x="500.244141" xlink:href="#ArialMT-108"/>
      <use x="522.460938" xlink:href="#ArialMT-117"/>
      <use x="578.076172" xlink:href="#ArialMT-116"/>
      <use x="605.859375" xlink:href="#ArialMT-105"/>
      <use x="628.076172" xlink:href="#ArialMT-111"/>
      <use x="683.691406" xlink:href="#ArialMT-110"/>
     </g>
    </g>
    <g id="PathCollection_2">
     <g>
      <use style="fill:#4c72b0;stroke:#4c72b0;" x="551.257938" xlink:href="#m19967258fe" y="94.817706"/>
     </g>
    </g>
    <g id="text_19">
     <!-- Numerical Solution -->
     <g style="fill:#262626;" transform="translate(571.057937 97.705206)scale(0.11 -0.11)">
      <use xlink:href="#ArialMT-78"/>
      <use x="72.216797" xlink:href="#ArialMT-117"/>
      <use x="127.832031" xlink:href="#ArialMT-109"/>
      <use x="211.132812" xlink:href="#ArialMT-101"/>
      <use x="266.748047" xlink:href="#ArialMT-114"/>
      <use x="300.048828" xlink:href="#ArialMT-105"/>
      <use x="322.265625" xlink:href="#ArialMT-99"/>
      <use x="372.265625" xlink:href="#ArialMT-97"/>
      <use x="427.880859" xlink:href="#ArialMT-108"/>
      <use x="450.097656" xlink:href="#ArialMT-32"/>
      <use x="477.880859" xlink:href="#ArialMT-83"/>
      <use x="544.580078" xlink:href="#ArialMT-111"/>
      <use x="600.195312" xlink:href="#ArialMT-108"/>
      <use x="622.412109" xlink:href="#ArialMT-117"/>
      <use x="678.027344" xlink:href="#ArialMT-116"/>
      <use x="705.810547" xlink:href="#ArialMT-105"/>
      <use x="728.027344" xlink:href="#ArialMT-111"/>
      <use x="783.642578" xlink:href="#ArialMT-110"/>
     </g>
    </g>
   </g>
  </g>
 </g>
 <defs>
  <clipPath id="p4d61127246">
   <rect height="411.3648" width="579.762" x="93.51" y="64.1088"/>
  </clipPath>
 </defs>
</svg>
